<mxfile host="app.diagrams.net" modified="2024-02-27T22:29:17.310Z" agent="Mozilla/5.0 (Windows NT 10.0; Win64; x64) AppleWebKit/537.36 (KHTML, like Gecko) Chrome/122.0.0.0 Safari/537.36" etag="jYGPnfcuyx0tbXwCejWW" version="23.1.7" type="device">
  <diagram name="Side-1" id="fyEVZG-FMkuWkUF8QCxi">
    <mxGraphModel dx="1259" dy="662" grid="1" gridSize="10" guides="1" tooltips="1" connect="1" arrows="1" fold="1" page="1" pageScale="1" pageWidth="827" pageHeight="1169" math="0" shadow="0">
      <root>
        <mxCell id="0" />
        <mxCell id="1" parent="0" />
        <mxCell id="WvTAVcKaum9eUnIsOMb8-2" value="CardFunctions" style="swimlane;fontStyle=1;align=center;verticalAlign=top;childLayout=stackLayout;horizontal=1;startSize=26;horizontalStack=0;resizeParent=1;resizeParentMax=0;resizeLast=0;collapsible=1;marginBottom=0;whiteSpace=wrap;html=1;" vertex="1" parent="1">
          <mxGeometry x="50" y="80" width="190" height="140" as="geometry" />
        </mxCell>
        <mxCell id="WvTAVcKaum9eUnIsOMb8-3" value="+ field: type" style="text;strokeColor=none;fillColor=none;align=left;verticalAlign=top;spacingLeft=4;spacingRight=4;overflow=hidden;rotatable=0;points=[[0,0.5],[1,0.5]];portConstraint=eastwest;whiteSpace=wrap;html=1;" vertex="1" parent="WvTAVcKaum9eUnIsOMb8-2">
          <mxGeometry y="26" width="190" height="26" as="geometry" />
        </mxCell>
        <mxCell id="WvTAVcKaum9eUnIsOMb8-4" value="" style="line;strokeWidth=1;fillColor=none;align=left;verticalAlign=middle;spacingTop=-1;spacingLeft=3;spacingRight=3;rotatable=0;labelPosition=right;points=[];portConstraint=eastwest;strokeColor=inherit;" vertex="1" parent="WvTAVcKaum9eUnIsOMb8-2">
          <mxGeometry y="52" width="190" height="8" as="geometry" />
        </mxCell>
        <mxCell id="WvTAVcKaum9eUnIsOMb8-5" value="+ GenerateCardAccount: string&lt;br&gt;+&amp;nbsp;GenerateCardNumber: string&lt;br&gt;-&amp;nbsp;GenerateRandomNumbers: string" style="text;strokeColor=none;fillColor=none;align=left;verticalAlign=top;spacingLeft=4;spacingRight=4;overflow=hidden;rotatable=0;points=[[0,0.5],[1,0.5]];portConstraint=eastwest;whiteSpace=wrap;html=1;" vertex="1" parent="WvTAVcKaum9eUnIsOMb8-2">
          <mxGeometry y="60" width="190" height="80" as="geometry" />
        </mxCell>
        <mxCell id="WvTAVcKaum9eUnIsOMb8-15" value="Card" style="swimlane;fontStyle=1;align=center;verticalAlign=top;childLayout=stackLayout;horizontal=1;startSize=26;horizontalStack=0;resizeParent=1;resizeParentMax=0;resizeLast=0;collapsible=1;marginBottom=0;whiteSpace=wrap;html=1;" vertex="1" parent="1">
          <mxGeometry x="240" y="300" width="160" height="148" as="geometry" />
        </mxCell>
        <mxCell id="WvTAVcKaum9eUnIsOMb8-16" value="&lt;div style=&quot;border-color: var(--border-color);&quot;&gt;&amp;nbsp;+ string CardNumber&lt;/div&gt;&lt;div style=&quot;border-color: var(--border-color);&quot;&gt;&amp;nbsp;+ string CardName&lt;/div&gt;&lt;div style=&quot;border-color: var(--border-color);&quot;&gt;&amp;nbsp;+ string CardAccount&lt;/div&gt;&lt;div style=&quot;border-color: var(--border-color);&quot;&gt;&amp;nbsp;+ int AgeRequirement&amp;nbsp;&lt;/div&gt;&lt;div style=&quot;border-color: var(--border-color);&quot;&gt;&amp;nbsp;+ string RegNumber&lt;/div&gt;&lt;div style=&quot;border-color: var(--border-color);&quot;&gt;&amp;nbsp;+ DateTime? ExpiryDate&amp;nbsp;&lt;/div&gt;" style="text;strokeColor=none;fillColor=none;align=left;verticalAlign=top;spacingLeft=4;spacingRight=4;overflow=hidden;rotatable=0;points=[[0,0.5],[1,0.5]];portConstraint=eastwest;whiteSpace=wrap;html=1;" vertex="1" parent="WvTAVcKaum9eUnIsOMb8-15">
          <mxGeometry y="26" width="160" height="114" as="geometry" />
        </mxCell>
        <mxCell id="WvTAVcKaum9eUnIsOMb8-17" value="" style="line;strokeWidth=1;fillColor=none;align=left;verticalAlign=middle;spacingTop=-1;spacingLeft=3;spacingRight=3;rotatable=0;labelPosition=right;points=[];portConstraint=eastwest;strokeColor=inherit;" vertex="1" parent="WvTAVcKaum9eUnIsOMb8-15">
          <mxGeometry y="140" width="160" height="8" as="geometry" />
        </mxCell>
        <mxCell id="WvTAVcKaum9eUnIsOMb8-19" value="DebetCard : Card" style="swimlane;fontStyle=1;align=center;verticalAlign=top;childLayout=stackLayout;horizontal=1;startSize=26;horizontalStack=0;resizeParent=1;resizeParentMax=0;resizeLast=0;collapsible=1;marginBottom=0;whiteSpace=wrap;html=1;" vertex="1" parent="1">
          <mxGeometry x="120" y="530" width="160" height="68" as="geometry" />
        </mxCell>
        <mxCell id="WvTAVcKaum9eUnIsOMb8-20" value="&lt;div style=&quot;border-color: var(--border-color);&quot;&gt;+ bool InternationalUse&lt;/div&gt;" style="text;strokeColor=none;fillColor=none;align=left;verticalAlign=top;spacingLeft=4;spacingRight=4;overflow=hidden;rotatable=0;points=[[0,0.5],[1,0.5]];portConstraint=eastwest;whiteSpace=wrap;html=1;" vertex="1" parent="WvTAVcKaum9eUnIsOMb8-19">
          <mxGeometry y="26" width="160" height="34" as="geometry" />
        </mxCell>
        <mxCell id="WvTAVcKaum9eUnIsOMb8-21" value="" style="line;strokeWidth=1;fillColor=none;align=left;verticalAlign=middle;spacingTop=-1;spacingLeft=3;spacingRight=3;rotatable=0;labelPosition=right;points=[];portConstraint=eastwest;strokeColor=inherit;" vertex="1" parent="WvTAVcKaum9eUnIsOMb8-19">
          <mxGeometry y="60" width="160" height="8" as="geometry" />
        </mxCell>
        <mxCell id="WvTAVcKaum9eUnIsOMb8-22" value="" style="endArrow=classic;html=1;rounded=0;exitX=0.5;exitY=0;exitDx=0;exitDy=0;" edge="1" parent="1" source="WvTAVcKaum9eUnIsOMb8-19">
          <mxGeometry width="50" height="50" relative="1" as="geometry">
            <mxPoint x="130" y="520" as="sourcePoint" />
            <mxPoint x="250" y="450" as="targetPoint" />
          </mxGeometry>
        </mxCell>
        <mxCell id="WvTAVcKaum9eUnIsOMb8-23" value="CreditCard : Card" style="swimlane;fontStyle=1;align=center;verticalAlign=top;childLayout=stackLayout;horizontal=1;startSize=26;horizontalStack=0;resizeParent=1;resizeParentMax=0;resizeLast=0;collapsible=1;marginBottom=0;whiteSpace=wrap;html=1;" vertex="1" parent="1">
          <mxGeometry x="414" y="530" width="160" height="68" as="geometry" />
        </mxCell>
        <mxCell id="WvTAVcKaum9eUnIsOMb8-24" value="&lt;div style=&quot;border-color: var(--border-color);&quot;&gt;+ int&amp;nbsp;MonthlyLimit&lt;/div&gt;" style="text;strokeColor=none;fillColor=none;align=left;verticalAlign=top;spacingLeft=4;spacingRight=4;overflow=hidden;rotatable=0;points=[[0,0.5],[1,0.5]];portConstraint=eastwest;whiteSpace=wrap;html=1;" vertex="1" parent="WvTAVcKaum9eUnIsOMb8-23">
          <mxGeometry y="26" width="160" height="34" as="geometry" />
        </mxCell>
        <mxCell id="WvTAVcKaum9eUnIsOMb8-25" value="" style="line;strokeWidth=1;fillColor=none;align=left;verticalAlign=middle;spacingTop=-1;spacingLeft=3;spacingRight=3;rotatable=0;labelPosition=right;points=[];portConstraint=eastwest;strokeColor=inherit;" vertex="1" parent="WvTAVcKaum9eUnIsOMb8-23">
          <mxGeometry y="60" width="160" height="8" as="geometry" />
        </mxCell>
        <mxCell id="WvTAVcKaum9eUnIsOMb8-26" value="" style="endArrow=classic;html=1;rounded=0;exitX=0.5;exitY=0;exitDx=0;exitDy=0;entryX=1;entryY=1;entryDx=0;entryDy=0;" edge="1" parent="1" source="WvTAVcKaum9eUnIsOMb8-23" target="WvTAVcKaum9eUnIsOMb8-15">
          <mxGeometry width="50" height="50" relative="1" as="geometry">
            <mxPoint x="210" y="540" as="sourcePoint" />
            <mxPoint x="260" y="460" as="targetPoint" />
          </mxGeometry>
        </mxCell>
        <mxCell id="WvTAVcKaum9eUnIsOMb8-27" value="CashCard : DebetCard&amp;nbsp;" style="swimlane;fontStyle=1;align=center;verticalAlign=top;childLayout=stackLayout;horizontal=1;startSize=26;horizontalStack=0;resizeParent=1;resizeParentMax=0;resizeLast=0;collapsible=1;marginBottom=0;whiteSpace=wrap;html=1;" vertex="1" parent="1">
          <mxGeometry x="40" y="642" width="160" height="34" as="geometry" />
        </mxCell>
        <mxCell id="WvTAVcKaum9eUnIsOMb8-29" value="" style="line;strokeWidth=1;fillColor=none;align=left;verticalAlign=middle;spacingTop=-1;spacingLeft=3;spacingRight=3;rotatable=0;labelPosition=right;points=[];portConstraint=eastwest;strokeColor=inherit;" vertex="1" parent="WvTAVcKaum9eUnIsOMb8-27">
          <mxGeometry y="26" width="160" height="8" as="geometry" />
        </mxCell>
        <mxCell id="WvTAVcKaum9eUnIsOMb8-30" value="Maestro : DebetCard&amp;nbsp;" style="swimlane;fontStyle=1;align=center;verticalAlign=top;childLayout=stackLayout;horizontal=1;startSize=26;horizontalStack=0;resizeParent=1;resizeParentMax=0;resizeLast=0;collapsible=1;marginBottom=0;whiteSpace=wrap;html=1;" vertex="1" parent="1">
          <mxGeometry x="254" y="650" width="160" height="34" as="geometry" />
        </mxCell>
        <mxCell id="WvTAVcKaum9eUnIsOMb8-31" value="" style="line;strokeWidth=1;fillColor=none;align=left;verticalAlign=middle;spacingTop=-1;spacingLeft=3;spacingRight=3;rotatable=0;labelPosition=right;points=[];portConstraint=eastwest;strokeColor=inherit;" vertex="1" parent="WvTAVcKaum9eUnIsOMb8-30">
          <mxGeometry y="26" width="160" height="8" as="geometry" />
        </mxCell>
        <mxCell id="WvTAVcKaum9eUnIsOMb8-32" value="VisaElectron : DebetCard&amp;nbsp;" style="swimlane;fontStyle=1;align=center;verticalAlign=top;childLayout=stackLayout;horizontal=1;startSize=26;horizontalStack=0;resizeParent=1;resizeParentMax=0;resizeLast=0;collapsible=1;marginBottom=0;whiteSpace=wrap;html=1;" vertex="1" parent="1">
          <mxGeometry x="150" y="710" width="180" height="34" as="geometry" />
        </mxCell>
        <mxCell id="WvTAVcKaum9eUnIsOMb8-33" value="" style="line;strokeWidth=1;fillColor=none;align=left;verticalAlign=middle;spacingTop=-1;spacingLeft=3;spacingRight=3;rotatable=0;labelPosition=right;points=[];portConstraint=eastwest;strokeColor=inherit;" vertex="1" parent="WvTAVcKaum9eUnIsOMb8-32">
          <mxGeometry y="26" width="180" height="8" as="geometry" />
        </mxCell>
        <mxCell id="WvTAVcKaum9eUnIsOMb8-38" value="Dankort :&amp;nbsp;CreditCard&amp;nbsp;" style="swimlane;fontStyle=0;childLayout=stackLayout;horizontal=1;startSize=26;fillColor=none;horizontalStack=0;resizeParent=1;resizeParentMax=0;resizeLast=0;collapsible=1;marginBottom=0;whiteSpace=wrap;html=1;" vertex="1" parent="1">
          <mxGeometry x="630" y="624" width="160" height="52" as="geometry" />
        </mxCell>
        <mxCell id="WvTAVcKaum9eUnIsOMb8-39" value="+ int MaxWithdrawMonthly" style="text;strokeColor=none;fillColor=none;align=left;verticalAlign=top;spacingLeft=4;spacingRight=4;overflow=hidden;rotatable=0;points=[[0,0.5],[1,0.5]];portConstraint=eastwest;whiteSpace=wrap;html=1;" vertex="1" parent="WvTAVcKaum9eUnIsOMb8-38">
          <mxGeometry y="26" width="160" height="26" as="geometry" />
        </mxCell>
        <mxCell id="WvTAVcKaum9eUnIsOMb8-42" value="Mastercard :&amp;nbsp;CreditCard&amp;nbsp;" style="swimlane;fontStyle=0;childLayout=stackLayout;horizontal=1;startSize=26;fillColor=none;horizontalStack=0;resizeParent=1;resizeParentMax=0;resizeLast=0;collapsible=1;marginBottom=0;whiteSpace=wrap;html=1;" vertex="1" parent="1">
          <mxGeometry x="470" y="710" width="160" height="70" as="geometry" />
        </mxCell>
        <mxCell id="WvTAVcKaum9eUnIsOMb8-43" value="+ int AvailableCredit&lt;br&gt;+ int DailyMax" style="text;strokeColor=none;fillColor=none;align=left;verticalAlign=top;spacingLeft=4;spacingRight=4;overflow=hidden;rotatable=0;points=[[0,0.5],[1,0.5]];portConstraint=eastwest;whiteSpace=wrap;html=1;" vertex="1" parent="WvTAVcKaum9eUnIsOMb8-42">
          <mxGeometry y="26" width="160" height="44" as="geometry" />
        </mxCell>
        <mxCell id="WvTAVcKaum9eUnIsOMb8-44" value="" style="endArrow=classic;html=1;rounded=0;exitX=0;exitY=0;exitDx=0;exitDy=0;entryX=1;entryY=1;entryDx=0;entryDy=0;" edge="1" parent="1" source="WvTAVcKaum9eUnIsOMb8-38" target="WvTAVcKaum9eUnIsOMb8-23">
          <mxGeometry width="50" height="50" relative="1" as="geometry">
            <mxPoint x="210" y="540" as="sourcePoint" />
            <mxPoint x="260" y="460" as="targetPoint" />
          </mxGeometry>
        </mxCell>
        <mxCell id="WvTAVcKaum9eUnIsOMb8-45" value="" style="endArrow=classic;html=1;rounded=0;exitX=0.5;exitY=0;exitDx=0;exitDy=0;" edge="1" parent="1" source="WvTAVcKaum9eUnIsOMb8-42">
          <mxGeometry width="50" height="50" relative="1" as="geometry">
            <mxPoint x="640" y="634" as="sourcePoint" />
            <mxPoint x="520" y="600" as="targetPoint" />
          </mxGeometry>
        </mxCell>
        <mxCell id="WvTAVcKaum9eUnIsOMb8-46" value="" style="endArrow=classic;html=1;rounded=0;exitX=0.5;exitY=0;exitDx=0;exitDy=0;entryX=0.25;entryY=1;entryDx=0;entryDy=0;" edge="1" parent="1" source="WvTAVcKaum9eUnIsOMb8-27" target="WvTAVcKaum9eUnIsOMb8-19">
          <mxGeometry width="50" height="50" relative="1" as="geometry">
            <mxPoint x="650" y="644" as="sourcePoint" />
            <mxPoint x="594" y="618" as="targetPoint" />
          </mxGeometry>
        </mxCell>
        <mxCell id="WvTAVcKaum9eUnIsOMb8-47" value="" style="endArrow=classic;html=1;rounded=0;exitX=0.5;exitY=0;exitDx=0;exitDy=0;entryX=0.744;entryY=0.625;entryDx=0;entryDy=0;entryPerimeter=0;" edge="1" parent="1" source="WvTAVcKaum9eUnIsOMb8-32" target="WvTAVcKaum9eUnIsOMb8-21">
          <mxGeometry width="50" height="50" relative="1" as="geometry">
            <mxPoint x="155" y="660" as="sourcePoint" />
            <mxPoint x="250" y="600" as="targetPoint" />
          </mxGeometry>
        </mxCell>
        <mxCell id="WvTAVcKaum9eUnIsOMb8-48" value="" style="endArrow=classic;html=1;rounded=0;exitX=0.5;exitY=0;exitDx=0;exitDy=0;entryX=0.988;entryY=0.966;entryDx=0;entryDy=0;entryPerimeter=0;" edge="1" parent="1" source="WvTAVcKaum9eUnIsOMb8-30" target="WvTAVcKaum9eUnIsOMb8-21">
          <mxGeometry width="50" height="50" relative="1" as="geometry">
            <mxPoint x="250" y="720" as="sourcePoint" />
            <mxPoint x="260" y="610" as="targetPoint" />
          </mxGeometry>
        </mxCell>
        <mxCell id="WvTAVcKaum9eUnIsOMb8-49" value="" style="endArrow=open;html=1;rounded=0;endFill=0;exitX=0.5;exitY=0;exitDx=0;exitDy=0;entryX=0.99;entryY=0.96;entryDx=0;entryDy=0;entryPerimeter=0;" edge="1" parent="1" source="WvTAVcKaum9eUnIsOMb8-15" target="WvTAVcKaum9eUnIsOMb8-5">
          <mxGeometry width="50" height="50" relative="1" as="geometry">
            <mxPoint x="300" y="370" as="sourcePoint" />
            <mxPoint x="350" y="320" as="targetPoint" />
          </mxGeometry>
        </mxCell>
      </root>
    </mxGraphModel>
  </diagram>
</mxfile>
